<mxfile host="app.diagrams.net" modified="2023-12-20T15:20:35.062Z" agent="Mozilla/5.0 (Windows NT 10.0; Win64; x64) AppleWebKit/537.36 (KHTML, like Gecko) Chrome/120.0.0.0 Safari/537.36" etag="H2GWec9IZ1YcyoJCQ1HL" version="22.1.11" type="device">
  <diagram id="C5RBs43oDa-KdzZeNtuy" name="Page-1">
    <mxGraphModel dx="2150" dy="1375" grid="1" gridSize="10" guides="1" tooltips="1" connect="1" arrows="1" fold="1" page="0" pageScale="1" pageWidth="827" pageHeight="1169" math="0" shadow="0">
      <root>
        <mxCell id="WIyWlLk6GJQsqaUBKTNV-0" />
        <mxCell id="WIyWlLk6GJQsqaUBKTNV-1" parent="WIyWlLk6GJQsqaUBKTNV-0" />
        <mxCell id="LFdidtodupPHbY-mCOph-6" style="edgeStyle=orthogonalEdgeStyle;rounded=0;hachureGap=4;orthogonalLoop=1;jettySize=auto;html=1;fontFamily=Helvetica;fontSource=https%3A%2F%2Ffonts.googleapis.com%2Fcss%3Ffamily%3DArchitects%2BDaughter;fontSize=14;fontColor=default;labelBackgroundColor=none;strokeWidth=2;" parent="WIyWlLk6GJQsqaUBKTNV-1" source="LFdidtodupPHbY-mCOph-1" target="LFdidtodupPHbY-mCOph-2" edge="1">
          <mxGeometry relative="1" as="geometry">
            <Array as="points">
              <mxPoint x="420" y="220" />
              <mxPoint x="420" y="220" />
            </Array>
          </mxGeometry>
        </mxCell>
        <mxCell id="LFdidtodupPHbY-mCOph-1" value="Начало" style="strokeWidth=2;html=1;shape=mxgraph.flowchart.start_1;whiteSpace=wrap;hachureGap=4;fontFamily=Helvetica;fontSize=14;labelBackgroundColor=none;" parent="WIyWlLk6GJQsqaUBKTNV-1" vertex="1">
          <mxGeometry x="370" y="-40" width="100" height="60" as="geometry" />
        </mxCell>
        <mxCell id="LFdidtodupPHbY-mCOph-7" style="edgeStyle=orthogonalEdgeStyle;shape=connector;rounded=0;hachureGap=4;orthogonalLoop=1;jettySize=auto;html=1;labelBackgroundColor=none;align=center;verticalAlign=middle;fontFamily=Helvetica;fontSource=https%3A%2F%2Ffonts.googleapis.com%2Fcss%3Ffamily%3DArchitects%2BDaughter;fontSize=14;fontColor=default;endArrow=classic;strokeWidth=2;" parent="WIyWlLk6GJQsqaUBKTNV-1" source="LFdidtodupPHbY-mCOph-2" target="LFdidtodupPHbY-mCOph-3" edge="1">
          <mxGeometry relative="1" as="geometry" />
        </mxCell>
        <mxCell id="LFdidtodupPHbY-mCOph-2" value="cout &amp;lt;&amp;lt; &quot;Введите отрезок [a;b], &lt;br&gt;на котором есть корень: &quot;;" style="shape=parallelogram;html=1;strokeWidth=2;perimeter=parallelogramPerimeter;whiteSpace=wrap;rounded=1;arcSize=12;size=0.23;hachureGap=4;align=center;verticalAlign=middle;fontFamily=Helvetica;fontSize=14;labelBackgroundColor=none;" parent="WIyWlLk6GJQsqaUBKTNV-1" vertex="1">
          <mxGeometry x="272.5" y="280" width="305" height="60" as="geometry" />
        </mxCell>
        <mxCell id="LFdidtodupPHbY-mCOph-3" value="cin &amp;gt;&amp;gt; a &amp;gt;&amp;gt; b;" style="shape=parallelogram;html=1;strokeWidth=2;perimeter=parallelogramPerimeter;whiteSpace=wrap;rounded=1;arcSize=12;size=0.23;hachureGap=4;align=center;verticalAlign=middle;fontFamily=Helvetica;fontSize=14;labelBackgroundColor=none;" parent="WIyWlLk6GJQsqaUBKTNV-1" vertex="1">
          <mxGeometry x="360" y="380" width="130" height="60" as="geometry" />
        </mxCell>
        <mxCell id="LFdidtodupPHbY-mCOph-11" style="edgeStyle=orthogonalEdgeStyle;shape=connector;rounded=0;hachureGap=4;orthogonalLoop=1;jettySize=auto;html=1;entryX=0.5;entryY=0;entryDx=0;entryDy=0;labelBackgroundColor=none;align=center;verticalAlign=middle;fontFamily=Helvetica;fontSource=https%3A%2F%2Ffonts.googleapis.com%2Fcss%3Ffamily%3DArchitects%2BDaughter;fontSize=14;fontColor=default;endArrow=classic;strokeWidth=2;" parent="WIyWlLk6GJQsqaUBKTNV-1" source="LFdidtodupPHbY-mCOph-8" target="LFdidtodupPHbY-mCOph-10" edge="1">
          <mxGeometry relative="1" as="geometry">
            <Array as="points">
              <mxPoint x="215" y="540" />
            </Array>
          </mxGeometry>
        </mxCell>
        <mxCell id="LFdidtodupPHbY-mCOph-16" style="edgeStyle=orthogonalEdgeStyle;shape=connector;rounded=0;hachureGap=4;orthogonalLoop=1;jettySize=auto;html=1;labelBackgroundColor=none;align=center;verticalAlign=middle;fontFamily=Helvetica;fontSource=https%3A%2F%2Ffonts.googleapis.com%2Fcss%3Ffamily%3DArchitects%2BDaughter;fontSize=14;fontColor=default;endArrow=classic;strokeWidth=2;" parent="WIyWlLk6GJQsqaUBKTNV-1" source="LFdidtodupPHbY-mCOph-8" target="LFdidtodupPHbY-mCOph-15" edge="1">
          <mxGeometry relative="1" as="geometry">
            <Array as="points">
              <mxPoint x="595" y="540" />
            </Array>
          </mxGeometry>
        </mxCell>
        <mxCell id="LFdidtodupPHbY-mCOph-8" value="if (f(a) * f(b) &amp;gt; 0)" style="strokeWidth=2;html=1;shape=mxgraph.flowchart.decision;whiteSpace=wrap;hachureGap=4;align=center;verticalAlign=middle;fontFamily=Helvetica;fontSource=https%3A%2F%2Ffonts.googleapis.com%2Fcss%3Ffamily%3DArchitects%2BDaughter;fontSize=14;labelBackgroundColor=none;" parent="WIyWlLk6GJQsqaUBKTNV-1" vertex="1">
          <mxGeometry x="360" y="490" width="130" height="100" as="geometry" />
        </mxCell>
        <mxCell id="LFdidtodupPHbY-mCOph-9" style="edgeStyle=orthogonalEdgeStyle;shape=connector;rounded=0;hachureGap=4;orthogonalLoop=1;jettySize=auto;html=1;entryX=0.5;entryY=0;entryDx=0;entryDy=0;entryPerimeter=0;labelBackgroundColor=none;align=center;verticalAlign=middle;fontFamily=Helvetica;fontSource=https%3A%2F%2Ffonts.googleapis.com%2Fcss%3Ffamily%3DArchitects%2BDaughter;fontSize=14;fontColor=default;endArrow=classic;strokeWidth=2;" parent="WIyWlLk6GJQsqaUBKTNV-1" source="LFdidtodupPHbY-mCOph-3" target="LFdidtodupPHbY-mCOph-8" edge="1">
          <mxGeometry relative="1" as="geometry" />
        </mxCell>
        <mxCell id="LFdidtodupPHbY-mCOph-50" style="edgeStyle=orthogonalEdgeStyle;shape=connector;rounded=0;hachureGap=4;orthogonalLoop=1;jettySize=auto;html=1;labelBackgroundColor=none;strokeColor=default;align=center;verticalAlign=middle;fontFamily=Helvetica;fontSource=https%3A%2F%2Ffonts.googleapis.com%2Fcss%3Ffamily%3DArchitects%2BDaughter;fontSize=14;fontColor=default;endArrow=classic;strokeWidth=2;" parent="WIyWlLk6GJQsqaUBKTNV-1" source="LFdidtodupPHbY-mCOph-10" edge="1">
          <mxGeometry relative="1" as="geometry">
            <mxPoint x="445" y="1280" as="targetPoint" />
            <Array as="points">
              <mxPoint x="215" y="1280" />
            </Array>
          </mxGeometry>
        </mxCell>
        <mxCell id="LFdidtodupPHbY-mCOph-10" value="cout &amp;lt;&amp;lt; &quot;На этом&lt;br&gt;отрезке нет корней.&quot;;" style="shape=parallelogram;html=1;strokeWidth=2;perimeter=parallelogramPerimeter;whiteSpace=wrap;rounded=1;arcSize=12;size=0.23;hachureGap=4;align=center;verticalAlign=middle;fontFamily=Helvetica;fontSource=https%3A%2F%2Ffonts.googleapis.com%2Fcss%3Ffamily%3DArchitects%2BDaughter;fontSize=14;labelBackgroundColor=none;" parent="WIyWlLk6GJQsqaUBKTNV-1" vertex="1">
          <mxGeometry x="110" y="590" width="210" height="60" as="geometry" />
        </mxCell>
        <mxCell id="LFdidtodupPHbY-mCOph-12" value="{" style="text;html=1;align=center;verticalAlign=middle;resizable=0;points=[];autosize=1;strokeColor=none;fillColor=none;fontSize=14;fontFamily=Helvetica;labelBackgroundColor=none;strokeWidth=2;" parent="WIyWlLk6GJQsqaUBKTNV-1" vertex="1">
          <mxGeometry x="185" y="548" width="30" height="30" as="geometry" />
        </mxCell>
        <mxCell id="LFdidtodupPHbY-mCOph-13" value="1" style="text;html=1;align=center;verticalAlign=middle;resizable=0;points=[];autosize=1;strokeColor=none;fillColor=none;fontSize=14;fontFamily=Helvetica;labelBackgroundColor=none;strokeWidth=2;" parent="WIyWlLk6GJQsqaUBKTNV-1" vertex="1">
          <mxGeometry x="320" y="508" width="30" height="30" as="geometry" />
        </mxCell>
        <mxCell id="LFdidtodupPHbY-mCOph-14" value="}" style="text;html=1;align=center;verticalAlign=middle;resizable=0;points=[];autosize=1;strokeColor=none;fillColor=none;fontSize=14;fontFamily=Helvetica;labelBackgroundColor=none;strokeWidth=2;" parent="WIyWlLk6GJQsqaUBKTNV-1" vertex="1">
          <mxGeometry x="225" y="658" width="30" height="30" as="geometry" />
        </mxCell>
        <mxCell id="LFdidtodupPHbY-mCOph-15" value="x0 = (a + b) / 2;" style="rounded=1;whiteSpace=wrap;html=1;absoluteArcSize=1;arcSize=14;strokeWidth=2;align=center;verticalAlign=middle;fontFamily=Helvetica;fontSize=14;fillColor=none;labelBackgroundColor=none;" parent="WIyWlLk6GJQsqaUBKTNV-1" vertex="1">
          <mxGeometry x="540" y="590" width="110" height="42" as="geometry" />
        </mxCell>
        <mxCell id="LFdidtodupPHbY-mCOph-17" value="0" style="text;html=1;align=center;verticalAlign=middle;resizable=0;points=[];autosize=1;strokeColor=none;fillColor=none;fontSize=14;fontFamily=Helvetica;labelBackgroundColor=none;strokeWidth=2;" parent="WIyWlLk6GJQsqaUBKTNV-1" vertex="1">
          <mxGeometry x="510" y="508" width="30" height="30" as="geometry" />
        </mxCell>
        <mxCell id="LFdidtodupPHbY-mCOph-18" value="{" style="text;html=1;align=center;verticalAlign=middle;resizable=0;points=[];autosize=1;strokeColor=none;fillColor=none;fontSize=14;fontFamily=Helvetica;fontColor=default;strokeWidth=2;" parent="WIyWlLk6GJQsqaUBKTNV-1" vertex="1">
          <mxGeometry x="560" y="548" width="30" height="30" as="geometry" />
        </mxCell>
        <mxCell id="LFdidtodupPHbY-mCOph-22" style="edgeStyle=orthogonalEdgeStyle;shape=connector;rounded=0;hachureGap=4;orthogonalLoop=1;jettySize=auto;html=1;entryX=0.5;entryY=0;entryDx=0;entryDy=0;labelBackgroundColor=none;strokeColor=default;align=center;verticalAlign=middle;fontFamily=Helvetica;fontSource=https%3A%2F%2Ffonts.googleapis.com%2Fcss%3Ffamily%3DArchitects%2BDaughter;fontSize=14;fontColor=default;endArrow=classic;exitX=0;exitY=0.5;exitDx=0;exitDy=0;exitPerimeter=0;strokeWidth=2;" parent="WIyWlLk6GJQsqaUBKTNV-1" source="LFdidtodupPHbY-mCOph-19" target="LFdidtodupPHbY-mCOph-21" edge="1">
          <mxGeometry relative="1" as="geometry" />
        </mxCell>
        <mxCell id="LFdidtodupPHbY-mCOph-19" value="if (abs(derivative_fxx(x0)) &amp;lt; 1)" style="strokeWidth=2;html=1;shape=mxgraph.flowchart.decision;whiteSpace=wrap;hachureGap=4;fontFamily=Helvetica;fontSource=https%3A%2F%2Ffonts.googleapis.com%2Fcss%3Ffamily%3DArchitects%2BDaughter;fontSize=14;fontColor=default;" parent="WIyWlLk6GJQsqaUBKTNV-1" vertex="1">
          <mxGeometry x="481.25" y="680" width="227.5" height="100" as="geometry" />
        </mxCell>
        <mxCell id="LFdidtodupPHbY-mCOph-20" style="edgeStyle=orthogonalEdgeStyle;shape=connector;rounded=0;hachureGap=4;orthogonalLoop=1;jettySize=auto;html=1;entryX=0.5;entryY=0;entryDx=0;entryDy=0;entryPerimeter=0;labelBackgroundColor=none;strokeColor=default;align=center;verticalAlign=middle;fontFamily=Helvetica;fontSource=https%3A%2F%2Ffonts.googleapis.com%2Fcss%3Ffamily%3DArchitects%2BDaughter;fontSize=14;fontColor=default;endArrow=classic;strokeWidth=2;" parent="WIyWlLk6GJQsqaUBKTNV-1" source="LFdidtodupPHbY-mCOph-15" target="LFdidtodupPHbY-mCOph-19" edge="1">
          <mxGeometry relative="1" as="geometry" />
        </mxCell>
        <mxCell id="LFdidtodupPHbY-mCOph-21" value="x = fxx(x0);" style="rounded=1;whiteSpace=wrap;html=1;absoluteArcSize=1;arcSize=14;strokeWidth=2;hachureGap=4;strokeColor=default;align=center;verticalAlign=middle;fontFamily=Helvetica;fontSource=https%3A%2F%2Ffonts.googleapis.com%2Fcss%3Ffamily%3DArchitects%2BDaughter;fontSize=14;fontColor=default;fillColor=default;" parent="WIyWlLk6GJQsqaUBKTNV-1" vertex="1">
          <mxGeometry x="390" y="770" width="100" height="40" as="geometry" />
        </mxCell>
        <mxCell id="LFdidtodupPHbY-mCOph-23" value="1" style="text;align=center;verticalAlign=middle;resizable=0;points=[];autosize=1;strokeColor=none;fillColor=none;fontSize=14;fontFamily=Helvetica;fontColor=default;strokeWidth=2;" parent="WIyWlLk6GJQsqaUBKTNV-1" vertex="1">
          <mxGeometry x="480" y="698" width="30" height="30" as="geometry" />
        </mxCell>
        <mxCell id="LFdidtodupPHbY-mCOph-24" value="&lt;p style=&quot;font-size: 14px;&quot;&gt;{&lt;/p&gt;" style="text;html=1;align=center;verticalAlign=middle;resizable=0;points=[];autosize=1;strokeColor=none;fillColor=none;fontSize=14;fontFamily=Helvetica;fontColor=default;strokeWidth=2;" parent="WIyWlLk6GJQsqaUBKTNV-1" vertex="1">
          <mxGeometry x="410" y="723" width="30" height="60" as="geometry" />
        </mxCell>
        <mxCell id="LFdidtodupPHbY-mCOph-32" style="edgeStyle=orthogonalEdgeStyle;shape=connector;rounded=0;hachureGap=4;orthogonalLoop=1;jettySize=auto;html=1;entryX=0.5;entryY=0;entryDx=0;entryDy=0;labelBackgroundColor=none;strokeColor=default;align=center;verticalAlign=middle;fontFamily=Helvetica;fontSource=https%3A%2F%2Ffonts.googleapis.com%2Fcss%3Ffamily%3DArchitects%2BDaughter;fontSize=14;fontColor=default;endArrow=classic;strokeWidth=2;" parent="WIyWlLk6GJQsqaUBKTNV-1" source="LFdidtodupPHbY-mCOph-25" target="LFdidtodupPHbY-mCOph-27" edge="1">
          <mxGeometry relative="1" as="geometry" />
        </mxCell>
        <mxCell id="LFdidtodupPHbY-mCOph-40" style="edgeStyle=orthogonalEdgeStyle;shape=connector;rounded=0;hachureGap=4;orthogonalLoop=1;jettySize=auto;html=1;labelBackgroundColor=none;strokeColor=default;align=center;verticalAlign=middle;fontFamily=Helvetica;fontSource=https%3A%2F%2Ffonts.googleapis.com%2Fcss%3Ffamily%3DArchitects%2BDaughter;fontSize=14;fontColor=default;endArrow=classic;strokeWidth=2;" parent="WIyWlLk6GJQsqaUBKTNV-1" source="LFdidtodupPHbY-mCOph-25" target="LFdidtodupPHbY-mCOph-39" edge="1">
          <mxGeometry relative="1" as="geometry">
            <Array as="points">
              <mxPoint x="695" y="910" />
            </Array>
          </mxGeometry>
        </mxCell>
        <mxCell id="LFdidtodupPHbY-mCOph-25" value="while (abs(x - x0) &amp;gt; E)" style="strokeWidth=2;html=1;shape=mxgraph.flowchart.decision;whiteSpace=wrap;hachureGap=4;strokeColor=default;align=center;verticalAlign=middle;fontFamily=Helvetica;fontSource=https%3A%2F%2Ffonts.googleapis.com%2Fcss%3Ffamily%3DArchitects%2BDaughter;fontSize=14;fontColor=default;fillColor=default;" parent="WIyWlLk6GJQsqaUBKTNV-1" vertex="1">
          <mxGeometry x="342.5" y="860" width="195" height="100" as="geometry" />
        </mxCell>
        <mxCell id="LFdidtodupPHbY-mCOph-26" style="edgeStyle=orthogonalEdgeStyle;shape=connector;rounded=0;hachureGap=4;orthogonalLoop=1;jettySize=auto;html=1;entryX=0.5;entryY=0;entryDx=0;entryDy=0;entryPerimeter=0;labelBackgroundColor=none;strokeColor=default;align=center;verticalAlign=middle;fontFamily=Helvetica;fontSource=https%3A%2F%2Ffonts.googleapis.com%2Fcss%3Ffamily%3DArchitects%2BDaughter;fontSize=14;fontColor=default;endArrow=classic;strokeWidth=2;" parent="WIyWlLk6GJQsqaUBKTNV-1" source="LFdidtodupPHbY-mCOph-21" target="LFdidtodupPHbY-mCOph-25" edge="1">
          <mxGeometry relative="1" as="geometry" />
        </mxCell>
        <mxCell id="LFdidtodupPHbY-mCOph-34" style="edgeStyle=orthogonalEdgeStyle;shape=connector;rounded=0;hachureGap=4;orthogonalLoop=1;jettySize=auto;html=1;labelBackgroundColor=none;strokeColor=default;align=center;verticalAlign=middle;fontFamily=Helvetica;fontSource=https%3A%2F%2Ffonts.googleapis.com%2Fcss%3Ffamily%3DArchitects%2BDaughter;fontSize=14;fontColor=default;endArrow=classic;strokeWidth=2;" parent="WIyWlLk6GJQsqaUBKTNV-1" source="LFdidtodupPHbY-mCOph-27" target="LFdidtodupPHbY-mCOph-28" edge="1">
          <mxGeometry relative="1" as="geometry" />
        </mxCell>
        <mxCell id="LFdidtodupPHbY-mCOph-27" value="x0 = x;" style="rounded=1;whiteSpace=wrap;html=1;absoluteArcSize=1;arcSize=14;strokeWidth=2;hachureGap=4;strokeColor=default;align=center;verticalAlign=middle;fontFamily=Helvetica;fontSource=https%3A%2F%2Ffonts.googleapis.com%2Fcss%3Ffamily%3DArchitects%2BDaughter;fontSize=14;fontColor=default;fillColor=default;" parent="WIyWlLk6GJQsqaUBKTNV-1" vertex="1">
          <mxGeometry x="390" y="990" width="100" height="40" as="geometry" />
        </mxCell>
        <mxCell id="LFdidtodupPHbY-mCOph-36" style="edgeStyle=orthogonalEdgeStyle;shape=connector;rounded=0;hachureGap=4;orthogonalLoop=1;jettySize=auto;html=1;entryX=0.5;entryY=0;entryDx=0;entryDy=0;labelBackgroundColor=none;strokeColor=default;align=center;verticalAlign=middle;fontFamily=Helvetica;fontSource=https%3A%2F%2Ffonts.googleapis.com%2Fcss%3Ffamily%3DArchitects%2BDaughter;fontSize=14;fontColor=default;endArrow=classic;strokeWidth=2;" parent="WIyWlLk6GJQsqaUBKTNV-1" source="LFdidtodupPHbY-mCOph-28" target="LFdidtodupPHbY-mCOph-29" edge="1">
          <mxGeometry relative="1" as="geometry" />
        </mxCell>
        <mxCell id="LFdidtodupPHbY-mCOph-28" value="x = fxx(x0);" style="rounded=1;whiteSpace=wrap;html=1;absoluteArcSize=1;arcSize=14;strokeWidth=2;hachureGap=4;strokeColor=default;align=center;verticalAlign=middle;fontFamily=Helvetica;fontSource=https%3A%2F%2Ffonts.googleapis.com%2Fcss%3Ffamily%3DArchitects%2BDaughter;fontSize=14;fontColor=default;fillColor=default;" parent="WIyWlLk6GJQsqaUBKTNV-1" vertex="1">
          <mxGeometry x="390" y="1060" width="100" height="40" as="geometry" />
        </mxCell>
        <mxCell id="LFdidtodupPHbY-mCOph-30" style="edgeStyle=orthogonalEdgeStyle;shape=connector;rounded=0;hachureGap=4;orthogonalLoop=1;jettySize=auto;html=1;labelBackgroundColor=none;strokeColor=default;align=center;verticalAlign=middle;fontFamily=Helvetica;fontSource=https%3A%2F%2Ffonts.googleapis.com%2Fcss%3Ffamily%3DArchitects%2BDaughter;fontSize=14;fontColor=default;endArrow=classic;strokeWidth=2;" parent="WIyWlLk6GJQsqaUBKTNV-1" source="LFdidtodupPHbY-mCOph-29" edge="1">
          <mxGeometry relative="1" as="geometry">
            <mxPoint x="440" y="830" as="targetPoint" />
            <Array as="points">
              <mxPoint x="440" y="1200" />
              <mxPoint x="276" y="1200" />
              <mxPoint x="276" y="830" />
            </Array>
          </mxGeometry>
        </mxCell>
        <mxCell id="LFdidtodupPHbY-mCOph-29" value="count++;" style="rounded=1;whiteSpace=wrap;html=1;absoluteArcSize=1;arcSize=14;strokeWidth=2;hachureGap=4;strokeColor=default;align=center;verticalAlign=middle;fontFamily=Helvetica;fontSource=https%3A%2F%2Ffonts.googleapis.com%2Fcss%3Ffamily%3DArchitects%2BDaughter;fontSize=14;fontColor=default;fillColor=default;" parent="WIyWlLk6GJQsqaUBKTNV-1" vertex="1">
          <mxGeometry x="390" y="1130" width="100" height="40" as="geometry" />
        </mxCell>
        <mxCell id="LFdidtodupPHbY-mCOph-31" value="}" style="text;html=1;align=center;verticalAlign=middle;resizable=0;points=[];autosize=1;strokeColor=none;fillColor=none;fontSize=14;fontFamily=Helvetica;fontColor=default;strokeWidth=2;" parent="WIyWlLk6GJQsqaUBKTNV-1" vertex="1">
          <mxGeometry x="440" y="1168" width="30" height="30" as="geometry" />
        </mxCell>
        <mxCell id="LFdidtodupPHbY-mCOph-37" value="1" style="text;html=1;align=center;verticalAlign=middle;resizable=0;points=[];autosize=1;strokeColor=none;fillColor=none;fontSize=14;fontFamily=Helvetica;fontColor=default;strokeWidth=2;" parent="WIyWlLk6GJQsqaUBKTNV-1" vertex="1">
          <mxGeometry x="440" y="958" width="30" height="30" as="geometry" />
        </mxCell>
        <mxCell id="LFdidtodupPHbY-mCOph-38" value="{" style="text;html=1;align=center;verticalAlign=middle;resizable=0;points=[];autosize=1;strokeColor=none;fillColor=none;fontSize=14;fontFamily=Helvetica;fontColor=default;strokeWidth=2;" parent="WIyWlLk6GJQsqaUBKTNV-1" vertex="1">
          <mxGeometry x="410" y="958" width="30" height="30" as="geometry" />
        </mxCell>
        <mxCell id="LFdidtodupPHbY-mCOph-48" style="edgeStyle=orthogonalEdgeStyle;shape=connector;rounded=0;hachureGap=4;orthogonalLoop=1;jettySize=auto;html=1;labelBackgroundColor=none;strokeColor=default;align=center;verticalAlign=middle;fontFamily=Helvetica;fontSource=https%3A%2F%2Ffonts.googleapis.com%2Fcss%3Ffamily%3DArchitects%2BDaughter;fontSize=14;fontColor=default;endArrow=classic;strokeWidth=2;" parent="WIyWlLk6GJQsqaUBKTNV-1" source="LFdidtodupPHbY-mCOph-39" edge="1">
          <mxGeometry relative="1" as="geometry">
            <mxPoint x="805" y="1170" as="targetPoint" />
            <Array as="points">
              <mxPoint x="685" y="1170" />
            </Array>
          </mxGeometry>
        </mxCell>
        <mxCell id="LFdidtodupPHbY-mCOph-39" value="&lt;div&gt;cout &amp;lt;&amp;lt; &quot;Примерный корень&amp;nbsp;&lt;/div&gt;&lt;div&gt;уравнения: &quot;&amp;nbsp;&lt;span style=&quot;background-color: initial;&quot;&gt;&amp;lt;&amp;lt;&amp;nbsp;&lt;/span&gt;&lt;span style=&quot;background-color: initial;&quot;&gt;x &amp;lt;&amp;lt; endl&lt;/span&gt;&lt;/div&gt;&lt;div&gt;&amp;nbsp; &amp;nbsp; &amp;lt;&amp;lt; &quot;Кол-во итераций: &quot;&amp;nbsp;&lt;/div&gt;&lt;div&gt;&amp;lt;&amp;lt; count;&lt;/div&gt;" style="shape=parallelogram;html=1;strokeWidth=2;perimeter=parallelogramPerimeter;whiteSpace=wrap;rounded=1;arcSize=12;size=0.23;hachureGap=4;strokeColor=default;align=center;verticalAlign=middle;fontFamily=Helvetica;fontSource=https%3A%2F%2Ffonts.googleapis.com%2Fcss%3Ffamily%3DArchitects%2BDaughter;fontSize=14;fontColor=default;fillColor=default;" parent="WIyWlLk6GJQsqaUBKTNV-1" vertex="1">
          <mxGeometry x="525" y="970" width="320" height="70" as="geometry" />
        </mxCell>
        <mxCell id="LFdidtodupPHbY-mCOph-41" value="0" style="text;html=1;align=center;verticalAlign=middle;resizable=0;points=[];autosize=1;strokeColor=none;fillColor=none;fontSize=14;fontFamily=Helvetica;fontColor=default;strokeWidth=2;" parent="WIyWlLk6GJQsqaUBKTNV-1" vertex="1">
          <mxGeometry x="540" y="878" width="30" height="30" as="geometry" />
        </mxCell>
        <mxCell id="LFdidtodupPHbY-mCOph-42" value="}" style="text;html=1;align=center;verticalAlign=middle;resizable=0;points=[];autosize=1;strokeColor=none;fillColor=none;fontSize=14;fontFamily=Helvetica;fontColor=default;strokeWidth=2;" parent="WIyWlLk6GJQsqaUBKTNV-1" vertex="1">
          <mxGeometry x="695" y="1048" width="30" height="30" as="geometry" />
        </mxCell>
        <mxCell id="LFdidtodupPHbY-mCOph-49" style="edgeStyle=orthogonalEdgeStyle;shape=connector;rounded=0;hachureGap=4;orthogonalLoop=1;jettySize=auto;html=1;labelBackgroundColor=none;strokeColor=default;align=center;verticalAlign=middle;fontFamily=Helvetica;fontSource=https%3A%2F%2Ffonts.googleapis.com%2Fcss%3Ffamily%3DArchitects%2BDaughter;fontSize=14;fontColor=default;endArrow=classic;exitX=0.543;exitY=1.013;exitDx=0;exitDy=0;exitPerimeter=0;strokeWidth=2;" parent="WIyWlLk6GJQsqaUBKTNV-1" edge="1">
          <mxGeometry relative="1" as="geometry">
            <mxPoint x="805" y="1170" as="targetPoint" />
            <mxPoint x="931.3400000000001" y="840.78" as="sourcePoint" />
            <Array as="points">
              <mxPoint x="931" y="1170" />
            </Array>
          </mxGeometry>
        </mxCell>
        <mxCell id="LFdidtodupPHbY-mCOph-43" value="cout &amp;lt;&amp;lt; &quot;Метод итераций неприменим к данной функции.&lt;br&gt;Абсолютное значение Производной функции x = f(x)&lt;br&gt;больше 1 в некоторой точке.&lt;span style=&quot;background-color: initial;&quot;&gt;&quot;;&lt;/span&gt;" style="shape=parallelogram;html=1;strokeWidth=2;perimeter=parallelogramPerimeter;whiteSpace=wrap;rounded=1;arcSize=9;size=0.23;hachureGap=4;strokeColor=default;align=center;verticalAlign=middle;fontFamily=Helvetica;fontSource=https%3A%2F%2Ffonts.googleapis.com%2Fcss%3Ffamily%3DArchitects%2BDaughter;fontSize=14;fontColor=default;fillColor=default;" parent="WIyWlLk6GJQsqaUBKTNV-1" vertex="1">
          <mxGeometry x="650" y="780" width="555" height="112" as="geometry" />
        </mxCell>
        <mxCell id="LFdidtodupPHbY-mCOph-44" style="edgeStyle=orthogonalEdgeStyle;shape=connector;rounded=0;hachureGap=4;orthogonalLoop=1;jettySize=auto;html=1;entryX=0.545;entryY=0.008;entryDx=0;entryDy=0;entryPerimeter=0;labelBackgroundColor=none;strokeColor=default;align=center;verticalAlign=middle;fontFamily=Helvetica;fontSource=https%3A%2F%2Ffonts.googleapis.com%2Fcss%3Ffamily%3DArchitects%2BDaughter;fontSize=14;fontColor=default;endArrow=classic;strokeWidth=2;" parent="WIyWlLk6GJQsqaUBKTNV-1" source="LFdidtodupPHbY-mCOph-19" edge="1">
          <mxGeometry relative="1" as="geometry">
            <mxPoint x="932.0999999999999" y="780.4799999999998" as="targetPoint" />
          </mxGeometry>
        </mxCell>
        <mxCell id="LFdidtodupPHbY-mCOph-45" value="0" style="text;html=1;align=center;verticalAlign=middle;resizable=0;points=[];autosize=1;strokeColor=none;fillColor=none;fontSize=14;fontFamily=Helvetica;fontColor=default;strokeWidth=2;" parent="WIyWlLk6GJQsqaUBKTNV-1" vertex="1">
          <mxGeometry x="700" y="698" width="30" height="30" as="geometry" />
        </mxCell>
        <mxCell id="LFdidtodupPHbY-mCOph-46" value="{" style="text;html=1;align=center;verticalAlign=middle;resizable=0;points=[];autosize=1;strokeColor=none;fillColor=none;fontSize=14;fontFamily=Helvetica;fontColor=default;strokeWidth=2;" parent="WIyWlLk6GJQsqaUBKTNV-1" vertex="1">
          <mxGeometry x="900" y="740" width="30" height="30" as="geometry" />
        </mxCell>
        <mxCell id="LFdidtodupPHbY-mCOph-47" value="}" style="text;html=1;align=center;verticalAlign=middle;resizable=0;points=[];autosize=1;strokeColor=none;fillColor=none;fontSize=14;fontFamily=Helvetica;fontColor=default;strokeWidth=2;" parent="WIyWlLk6GJQsqaUBKTNV-1" vertex="1">
          <mxGeometry x="945" y="960" width="30" height="30" as="geometry" />
        </mxCell>
        <mxCell id="LFdidtodupPHbY-mCOph-52" style="edgeStyle=orthogonalEdgeStyle;shape=connector;rounded=0;hachureGap=4;orthogonalLoop=1;jettySize=auto;html=1;labelBackgroundColor=none;strokeColor=default;align=center;verticalAlign=middle;fontFamily=Helvetica;fontSource=https%3A%2F%2Ffonts.googleapis.com%2Fcss%3Ffamily%3DArchitects%2BDaughter;fontSize=14;fontColor=default;endArrow=classic;strokeWidth=2;" parent="WIyWlLk6GJQsqaUBKTNV-1" edge="1">
          <mxGeometry relative="1" as="geometry">
            <mxPoint x="445" y="1280" as="targetPoint" />
            <mxPoint x="805" y="1170" as="sourcePoint" />
            <Array as="points">
              <mxPoint x="805" y="1280" />
            </Array>
          </mxGeometry>
        </mxCell>
        <mxCell id="LFdidtodupPHbY-mCOph-53" value="}" style="text;html=1;align=center;verticalAlign=middle;resizable=0;points=[];autosize=1;strokeColor=none;fillColor=none;fontSize=14;fontFamily=Helvetica;fontColor=default;strokeWidth=2;" parent="WIyWlLk6GJQsqaUBKTNV-1" vertex="1">
          <mxGeometry x="815" y="1180" width="30" height="30" as="geometry" />
        </mxCell>
        <mxCell id="LFdidtodupPHbY-mCOph-55" value="return 0;}" style="strokeWidth=2;html=1;shape=mxgraph.flowchart.start_1;whiteSpace=wrap;hachureGap=4;strokeColor=default;align=center;verticalAlign=middle;fontFamily=Helvetica;fontSource=https%3A%2F%2Ffonts.googleapis.com%2Fcss%3Ffamily%3DArchitects%2BDaughter;fontSize=14;fontColor=default;fillColor=default;" parent="WIyWlLk6GJQsqaUBKTNV-1" vertex="1">
          <mxGeometry x="395" y="1320" width="100" height="60" as="geometry" />
        </mxCell>
        <mxCell id="LFdidtodupPHbY-mCOph-61" style="edgeStyle=orthogonalEdgeStyle;shape=connector;rounded=0;hachureGap=4;orthogonalLoop=1;jettySize=auto;html=1;entryX=0.498;entryY=-0.031;entryDx=0;entryDy=0;entryPerimeter=0;labelBackgroundColor=none;strokeColor=default;align=center;verticalAlign=middle;fontFamily=Helvetica;fontSource=https%3A%2F%2Ffonts.googleapis.com%2Fcss%3Ffamily%3DArchitects%2BDaughter;fontSize=14;fontColor=default;endArrow=classic;strokeWidth=2;" parent="WIyWlLk6GJQsqaUBKTNV-1" target="LFdidtodupPHbY-mCOph-55" edge="1">
          <mxGeometry relative="1" as="geometry">
            <mxPoint x="445" y="1280" as="sourcePoint" />
          </mxGeometry>
        </mxCell>
        <mxCell id="njr4N8bvg7Tj59WYy33H-2" style="edgeStyle=orthogonalEdgeStyle;rounded=0;orthogonalLoop=1;jettySize=auto;html=1;strokeWidth=2;" edge="1" parent="WIyWlLk6GJQsqaUBKTNV-1" source="LFdidtodupPHbY-mCOph-62">
          <mxGeometry relative="1" as="geometry">
            <mxPoint x="420" y="120" as="targetPoint" />
            <Array as="points">
              <mxPoint x="420" y="120" />
            </Array>
          </mxGeometry>
        </mxCell>
        <mxCell id="LFdidtodupPHbY-mCOph-62" value="&lt;div&gt;#include &amp;lt;iostream&amp;gt;&lt;/div&gt;&lt;div&gt;#include &amp;lt;cmath&amp;gt;&lt;/div&gt;&lt;div&gt;using namespace std;&lt;/div&gt;&lt;div&gt;const double E = 0.000001;&lt;/div&gt;&lt;div&gt;int count = 1;&lt;/div&gt;&lt;div&gt;int main(){&lt;/div&gt;&lt;div&gt;&lt;div&gt;setlocale(LC_ALL, &quot;Russian&quot;);&lt;/div&gt;&lt;div&gt;&lt;span style=&quot;background-color: initial;&quot;&gt;double a, b, x, x0;&lt;/span&gt;&lt;/div&gt;&lt;/div&gt;" style="strokeWidth=2;html=1;shape=mxgraph.flowchart.annotation_2;align=left;labelPosition=right;pointerEvents=1;hachureGap=4;strokeColor=default;verticalAlign=middle;fontFamily=Helvetica;fontSource=https%3A%2F%2Ffonts.googleapis.com%2Fcss%3Ffamily%3DArchitects%2BDaughter;fontSize=14;fontColor=default;fillColor=default;" parent="WIyWlLk6GJQsqaUBKTNV-1" vertex="1">
          <mxGeometry x="622.5" y="50" width="27.5" height="140" as="geometry" />
        </mxCell>
        <mxCell id="njr4N8bvg7Tj59WYy33H-8" style="edgeStyle=orthogonalEdgeStyle;rounded=0;orthogonalLoop=1;jettySize=auto;html=1;fontFamily=Helvetica;fontSize=12;fontColor=default;strokeWidth=2;" edge="1" parent="WIyWlLk6GJQsqaUBKTNV-1" source="njr4N8bvg7Tj59WYy33H-4" target="njr4N8bvg7Tj59WYy33H-7">
          <mxGeometry relative="1" as="geometry" />
        </mxCell>
        <mxCell id="njr4N8bvg7Tj59WYy33H-4" value="&lt;font style=&quot;font-size: 14px;&quot;&gt;Начало&lt;/font&gt;" style="ellipse;whiteSpace=wrap;html=1;strokeWidth=2;" vertex="1" parent="WIyWlLk6GJQsqaUBKTNV-1">
          <mxGeometry x="55" y="-40" width="100" height="60" as="geometry" />
        </mxCell>
        <mxCell id="njr4N8bvg7Tj59WYy33H-9" style="edgeStyle=orthogonalEdgeStyle;rounded=0;orthogonalLoop=1;jettySize=auto;html=1;fontFamily=Helvetica;fontSize=12;fontColor=default;strokeWidth=2;" edge="1" parent="WIyWlLk6GJQsqaUBKTNV-1" source="njr4N8bvg7Tj59WYy33H-5">
          <mxGeometry relative="1" as="geometry">
            <mxPoint x="105" y="65" as="targetPoint" />
          </mxGeometry>
        </mxCell>
        <mxCell id="njr4N8bvg7Tj59WYy33H-5" value="&lt;div style=&quot;font-size: 14px;&quot;&gt;&lt;font style=&quot;font-size: 14px;&quot;&gt;double f(double x)&lt;/font&gt;&lt;span style=&quot;background-color: initial;&quot;&gt;{&lt;/span&gt;&lt;/div&gt;" style="strokeWidth=2;html=1;shape=mxgraph.flowchart.annotation_2;align=left;labelPosition=right;pointerEvents=1;" vertex="1" parent="WIyWlLk6GJQsqaUBKTNV-1">
          <mxGeometry x="215" y="40" width="50" height="50" as="geometry" />
        </mxCell>
        <mxCell id="njr4N8bvg7Tj59WYy33H-7" value="&lt;font style=&quot;font-size: 14px;&quot;&gt;return sqrt(1 - 0.4 * pow(x, 2)) - asin(x);}&lt;/font&gt;" style="strokeWidth=2;html=1;shape=mxgraph.flowchart.start_1;whiteSpace=wrap;" vertex="1" parent="WIyWlLk6GJQsqaUBKTNV-1">
          <mxGeometry x="-50" y="130" width="310" height="60" as="geometry" />
        </mxCell>
        <mxCell id="njr4N8bvg7Tj59WYy33H-25" style="edgeStyle=orthogonalEdgeStyle;rounded=0;orthogonalLoop=1;jettySize=auto;html=1;fontFamily=Helvetica;fontSize=12;fontColor=default;strokeWidth=2;" edge="1" parent="WIyWlLk6GJQsqaUBKTNV-1" source="njr4N8bvg7Tj59WYy33H-26" target="njr4N8bvg7Tj59WYy33H-29">
          <mxGeometry relative="1" as="geometry" />
        </mxCell>
        <mxCell id="njr4N8bvg7Tj59WYy33H-26" value="&lt;font style=&quot;font-size: 14px;&quot;&gt;Начало&lt;/font&gt;" style="ellipse;whiteSpace=wrap;html=1;strokeWidth=2;" vertex="1" parent="WIyWlLk6GJQsqaUBKTNV-1">
          <mxGeometry x="975" y="-40" width="100" height="60" as="geometry" />
        </mxCell>
        <mxCell id="njr4N8bvg7Tj59WYy33H-27" style="edgeStyle=orthogonalEdgeStyle;rounded=0;orthogonalLoop=1;jettySize=auto;html=1;fontFamily=Helvetica;fontSize=12;fontColor=default;strokeWidth=2;" edge="1" parent="WIyWlLk6GJQsqaUBKTNV-1" source="njr4N8bvg7Tj59WYy33H-28">
          <mxGeometry relative="1" as="geometry">
            <mxPoint x="1025" y="65" as="targetPoint" />
          </mxGeometry>
        </mxCell>
        <mxCell id="njr4N8bvg7Tj59WYy33H-28" value="&lt;div style=&quot;font-size: 14px;&quot;&gt;&lt;font style=&quot;font-size: 14px;&quot;&gt;double fxx(double x)&lt;/font&gt;&lt;span style=&quot;background-color: initial;&quot;&gt;{&lt;/span&gt;&lt;/div&gt;" style="strokeWidth=2;html=1;shape=mxgraph.flowchart.annotation_2;align=left;labelPosition=right;pointerEvents=1;" vertex="1" parent="WIyWlLk6GJQsqaUBKTNV-1">
          <mxGeometry x="1135" y="40" width="50" height="50" as="geometry" />
        </mxCell>
        <mxCell id="njr4N8bvg7Tj59WYy33H-29" value="&lt;font style=&quot;font-size: 14px;&quot;&gt;return sin(sqrt(1 - 0.4 * pow(x, 2)));}&lt;/font&gt;" style="strokeWidth=2;html=1;shape=mxgraph.flowchart.start_1;whiteSpace=wrap;" vertex="1" parent="WIyWlLk6GJQsqaUBKTNV-1">
          <mxGeometry x="870" y="130" width="310" height="60" as="geometry" />
        </mxCell>
        <mxCell id="njr4N8bvg7Tj59WYy33H-30" style="edgeStyle=orthogonalEdgeStyle;rounded=0;orthogonalLoop=1;jettySize=auto;html=1;fontFamily=Helvetica;fontSize=12;fontColor=default;strokeWidth=2;" edge="1" parent="WIyWlLk6GJQsqaUBKTNV-1" source="njr4N8bvg7Tj59WYy33H-31" target="njr4N8bvg7Tj59WYy33H-34">
          <mxGeometry relative="1" as="geometry" />
        </mxCell>
        <mxCell id="njr4N8bvg7Tj59WYy33H-31" value="&lt;font style=&quot;font-size: 14px;&quot;&gt;Начало&lt;/font&gt;" style="ellipse;whiteSpace=wrap;html=1;strokeWidth=2;" vertex="1" parent="WIyWlLk6GJQsqaUBKTNV-1">
          <mxGeometry x="970" y="230" width="100" height="60" as="geometry" />
        </mxCell>
        <mxCell id="njr4N8bvg7Tj59WYy33H-32" style="edgeStyle=orthogonalEdgeStyle;rounded=0;orthogonalLoop=1;jettySize=auto;html=1;fontFamily=Helvetica;fontSize=12;fontColor=default;strokeWidth=2;" edge="1" parent="WIyWlLk6GJQsqaUBKTNV-1" source="njr4N8bvg7Tj59WYy33H-33">
          <mxGeometry relative="1" as="geometry">
            <mxPoint x="1020" y="335" as="targetPoint" />
          </mxGeometry>
        </mxCell>
        <mxCell id="njr4N8bvg7Tj59WYy33H-33" value="&lt;div style=&quot;font-size: 14px;&quot;&gt;&lt;font style=&quot;font-size: 14px;&quot;&gt;double&amp;nbsp;&lt;/font&gt;derivative_fxx&lt;font style=&quot;background-color: initial;&quot;&gt;(double x)&lt;/font&gt;&lt;span style=&quot;background-color: initial;&quot;&gt;{&lt;/span&gt;&lt;/div&gt;" style="strokeWidth=2;html=1;shape=mxgraph.flowchart.annotation_2;align=left;labelPosition=right;pointerEvents=1;" vertex="1" parent="WIyWlLk6GJQsqaUBKTNV-1">
          <mxGeometry x="1130" y="310" width="50" height="50" as="geometry" />
        </mxCell>
        <mxCell id="njr4N8bvg7Tj59WYy33H-34" value="&lt;div style=&quot;font-size: 14px;&quot;&gt;&lt;font style=&quot;font-size: 14px;&quot;&gt;return -(2 * x * cos(sqrt(1 - (2 * pow(x, 2)) / 5))) / (5 * sqrt(1 - (2 * pow(x, 2)) / 5));&lt;/font&gt;&lt;span style=&quot;background-color: initial;&quot;&gt;}&lt;/span&gt;&lt;/div&gt;" style="strokeWidth=2;html=1;shape=mxgraph.flowchart.start_1;whiteSpace=wrap;" vertex="1" parent="WIyWlLk6GJQsqaUBKTNV-1">
          <mxGeometry x="732.5" y="400" width="575" height="50" as="geometry" />
        </mxCell>
      </root>
    </mxGraphModel>
  </diagram>
</mxfile>
